<mxfile host="app.diagrams.net" modified="2024-04-26T04:58:30.688Z" agent="Mozilla/5.0 (Windows NT 10.0; Win64; x64) AppleWebKit/537.36 (KHTML, like Gecko) Chrome/124.0.0.0 Safari/537.36" etag="nXe3WmfySwdX9pzOm6P4" version="24.1.0" type="github">
  <diagram name="Page-1" id="5U_wKig6C82GusZXRiz7">
    <mxGraphModel dx="794" dy="458" grid="1" gridSize="10" guides="1" tooltips="1" connect="1" arrows="1" fold="1" page="1" pageScale="1" pageWidth="827" pageHeight="1169" math="0" shadow="0">
      <root>
        <mxCell id="0" />
        <mxCell id="1" parent="0" />
        <mxCell id="iXRmQMQ0yhH92oJNqK0P-1" value="" style="rounded=0;whiteSpace=wrap;html=1;" parent="1" vertex="1">
          <mxGeometry x="40" y="40" width="750" height="170" as="geometry" />
        </mxCell>
        <mxCell id="iXRmQMQ0yhH92oJNqK0P-2" value="&lt;b&gt;THREADS&lt;/b&gt;" style="rounded=0;whiteSpace=wrap;html=1;strokeColor=none;" parent="1" vertex="1">
          <mxGeometry x="80" y="50" width="120" height="60" as="geometry" />
        </mxCell>
        <mxCell id="iXRmQMQ0yhH92oJNqK0P-3" value="" style="edgeStyle=orthogonalEdgeStyle;rounded=0;orthogonalLoop=1;jettySize=auto;html=1;" parent="1" source="iXRmQMQ0yhH92oJNqK0P-4" target="iXRmQMQ0yhH92oJNqK0P-6" edge="1">
          <mxGeometry relative="1" as="geometry" />
        </mxCell>
        <mxCell id="iXRmQMQ0yhH92oJNqK0P-4" value="Init" style="rounded=1;whiteSpace=wrap;html=1;" parent="1" vertex="1">
          <mxGeometry x="90" y="100" width="120" height="60" as="geometry" />
        </mxCell>
        <mxCell id="iXRmQMQ0yhH92oJNqK0P-5" value="" style="edgeStyle=orthogonalEdgeStyle;rounded=0;orthogonalLoop=1;jettySize=auto;html=1;" parent="1" source="iXRmQMQ0yhH92oJNqK0P-6" target="iXRmQMQ0yhH92oJNqK0P-8" edge="1">
          <mxGeometry relative="1" as="geometry" />
        </mxCell>
        <mxCell id="iXRmQMQ0yhH92oJNqK0P-6" value="UART init" style="whiteSpace=wrap;html=1;rounded=1;" parent="1" vertex="1">
          <mxGeometry x="90" y="240" width="120" height="60" as="geometry" />
        </mxCell>
        <mxCell id="iXRmQMQ0yhH92oJNqK0P-7" value="" style="edgeStyle=orthogonalEdgeStyle;rounded=0;orthogonalLoop=1;jettySize=auto;html=1;" parent="1" source="iXRmQMQ0yhH92oJNqK0P-8" target="iXRmQMQ0yhH92oJNqK0P-9" edge="1">
          <mxGeometry relative="1" as="geometry" />
        </mxCell>
        <mxCell id="iXRmQMQ0yhH92oJNqK0P-8" value="BLE init" style="whiteSpace=wrap;html=1;rounded=1;" parent="1" vertex="1">
          <mxGeometry x="90" y="380" width="120" height="60" as="geometry" />
        </mxCell>
        <mxCell id="iXRmQMQ0yhH92oJNqK0P-9" value="init end" style="whiteSpace=wrap;html=1;rounded=1;" parent="1" vertex="1">
          <mxGeometry x="90" y="520" width="120" height="60" as="geometry" />
        </mxCell>
        <mxCell id="iXRmQMQ0yhH92oJNqK0P-10" value="" style="group;verticalAlign=middle;" parent="1" connectable="0" vertex="1">
          <mxGeometry x="370" y="70" width="410" height="130" as="geometry" />
        </mxCell>
        <mxCell id="iXRmQMQ0yhH92oJNqK0P-11" value="" style="rounded=0;whiteSpace=wrap;html=1;" parent="iXRmQMQ0yhH92oJNqK0P-10" vertex="1">
          <mxGeometry width="410" height="130" as="geometry" />
        </mxCell>
        <mxCell id="iXRmQMQ0yhH92oJNqK0P-12" value="&lt;b&gt;SHELL&lt;/b&gt;" style="rounded=0;whiteSpace=wrap;html=1;strokeColor=none;" parent="iXRmQMQ0yhH92oJNqK0P-10" vertex="1">
          <mxGeometry x="10.512820512820513" y="10" width="90.41025641025641" height="30" as="geometry" />
        </mxCell>
        <mxCell id="iXRmQMQ0yhH92oJNqK0P-13" value="BLEscan&lt;span style=&quot;white-space: pre;&quot;&gt;&#x9;&lt;/span&gt;" style="rounded=1;whiteSpace=wrap;html=1;arcSize=30;" parent="iXRmQMQ0yhH92oJNqK0P-10" vertex="1">
          <mxGeometry x="280" y="50" width="120" height="60" as="geometry" />
        </mxCell>
        <mxCell id="iXRmQMQ0yhH92oJNqK0P-14" value="BLEcon" style="rounded=1;whiteSpace=wrap;html=1;arcSize=30;" parent="iXRmQMQ0yhH92oJNqK0P-10" vertex="1">
          <mxGeometry x="150" y="50" width="120" height="60" as="geometry" />
        </mxCell>
        <mxCell id="iXRmQMQ0yhH92oJNqK0P-15" style="edgeStyle=orthogonalEdgeStyle;rounded=0;orthogonalLoop=1;jettySize=auto;html=1;exitX=0.75;exitY=1;exitDx=0;exitDy=0;" parent="1" target="iXRmQMQ0yhH92oJNqK0P-25" edge="1">
          <mxGeometry relative="1" as="geometry">
            <mxPoint x="320" y="160" as="sourcePoint" />
            <mxPoint x="390" y="420" as="targetPoint" />
            <Array as="points">
              <mxPoint x="350" y="160" />
              <mxPoint x="350" y="250" />
              <mxPoint x="390" y="250" />
            </Array>
          </mxGeometry>
        </mxCell>
        <mxCell id="iXRmQMQ0yhH92oJNqK0P-16" value="Stream msg" style="rounded=1;whiteSpace=wrap;html=1;" parent="1" vertex="1">
          <mxGeometry x="240" y="100" width="120" height="60" as="geometry" />
        </mxCell>
        <mxCell id="iXRmQMQ0yhH92oJNqK0P-17" style="edgeStyle=orthogonalEdgeStyle;rounded=0;orthogonalLoop=1;jettySize=auto;html=1;" parent="1" source="iXRmQMQ0yhH92oJNqK0P-18" target="iXRmQMQ0yhH92oJNqK0P-20" edge="1">
          <mxGeometry relative="1" as="geometry">
            <mxPoint x="270" y="260" as="targetPoint" />
          </mxGeometry>
        </mxCell>
        <mxCell id="iXRmQMQ0yhH92oJNqK0P-18" value="&lt;div style=&quot;color: rgb(59, 59, 59); background-color: rgb(255, 255, 255); font-family: Consolas, &amp;quot;Courier New&amp;quot;, monospace; font-size: 14px; line-height: 19px; white-space: pre;&quot;&gt;BLE found&lt;/div&gt;" style="ellipse;whiteSpace=wrap;html=1;" parent="1" vertex="1">
          <mxGeometry x="210" y="300" width="120" height="80" as="geometry" />
        </mxCell>
        <mxCell id="iXRmQMQ0yhH92oJNqK0P-19" style="edgeStyle=orthogonalEdgeStyle;rounded=0;orthogonalLoop=1;jettySize=auto;html=1;exitX=0.5;exitY=0;exitDx=0;exitDy=0;entryX=0.25;entryY=1;entryDx=0;entryDy=0;" parent="1" source="iXRmQMQ0yhH92oJNqK0P-20" target="iXRmQMQ0yhH92oJNqK0P-16" edge="1">
          <mxGeometry relative="1" as="geometry" />
        </mxCell>
        <mxCell id="iXRmQMQ0yhH92oJNqK0P-20" value="msg queue" style="shape=process;whiteSpace=wrap;html=1;backgroundOutline=1;" parent="1" vertex="1">
          <mxGeometry x="210" y="180" width="120" height="60" as="geometry" />
        </mxCell>
        <mxCell id="iXRmQMQ0yhH92oJNqK0P-21" value="UART send msg" style="rounded=1;whiteSpace=wrap;html=1;arcSize=30;" parent="1" vertex="1">
          <mxGeometry x="344" y="460" width="120" height="60" as="geometry" />
        </mxCell>
        <mxCell id="iXRmQMQ0yhH92oJNqK0P-22" style="edgeStyle=orthogonalEdgeStyle;rounded=0;orthogonalLoop=1;jettySize=auto;html=1;exitX=0.5;exitY=1;exitDx=0;exitDy=0;" parent="1" target="iXRmQMQ0yhH92oJNqK0P-25" edge="1">
          <mxGeometry relative="1" as="geometry">
            <mxPoint x="454" y="180" as="sourcePoint" />
          </mxGeometry>
        </mxCell>
        <mxCell id="iXRmQMQ0yhH92oJNqK0P-23" value="&lt;div style=&quot;color: rgb(59, 59, 59); background-color: rgb(255, 255, 255); font-family: Consolas, &amp;quot;Courier New&amp;quot;, monospace; font-size: 14px; line-height: 19px; white-space: pre;&quot;&gt;gcurec&lt;/div&gt;" style="rounded=1;whiteSpace=wrap;html=1;arcSize=30;" parent="1" vertex="1">
          <mxGeometry x="394" y="120" width="120" height="60" as="geometry" />
        </mxCell>
        <mxCell id="iXRmQMQ0yhH92oJNqK0P-24" style="edgeStyle=orthogonalEdgeStyle;rounded=0;orthogonalLoop=1;jettySize=auto;html=1;exitX=0.5;exitY=1;exitDx=0;exitDy=0;" parent="1" source="iXRmQMQ0yhH92oJNqK0P-25" target="iXRmQMQ0yhH92oJNqK0P-21" edge="1">
          <mxGeometry relative="1" as="geometry" />
        </mxCell>
        <mxCell id="iXRmQMQ0yhH92oJNqK0P-25" value="HCI protocal" style="rounded=1;whiteSpace=wrap;html=1;arcSize=30;" parent="1" vertex="1">
          <mxGeometry x="344" y="320" width="120" height="60" as="geometry" />
        </mxCell>
        <mxCell id="iXRmQMQ0yhH92oJNqK0P-26" style="edgeStyle=orthogonalEdgeStyle;rounded=0;orthogonalLoop=1;jettySize=auto;html=1;exitX=0.5;exitY=1;exitDx=0;exitDy=0;" parent="1" source="iXRmQMQ0yhH92oJNqK0P-28" target="iXRmQMQ0yhH92oJNqK0P-31" edge="1">
          <mxGeometry relative="1" as="geometry" />
        </mxCell>
        <mxCell id="iXRmQMQ0yhH92oJNqK0P-27" value="Start" style="edgeLabel;html=1;align=center;verticalAlign=middle;resizable=0;points=[];" parent="iXRmQMQ0yhH92oJNqK0P-26" connectable="0" vertex="1">
          <mxGeometry x="-0.3724" y="-1" relative="1" as="geometry">
            <mxPoint as="offset" />
          </mxGeometry>
        </mxCell>
        <mxCell id="iXRmQMQ0yhH92oJNqK0P-28" value="Start/stop" style="rhombus;whiteSpace=wrap;html=1;" parent="1" vertex="1">
          <mxGeometry x="540" y="250" width="80" height="80" as="geometry" />
        </mxCell>
        <mxCell id="iXRmQMQ0yhH92oJNqK0P-29" style="edgeStyle=orthogonalEdgeStyle;rounded=0;orthogonalLoop=1;jettySize=auto;html=1;exitX=0.5;exitY=1;exitDx=0;exitDy=0;entryX=0.5;entryY=0;entryDx=0;entryDy=0;" parent="1" source="iXRmQMQ0yhH92oJNqK0P-14" target="iXRmQMQ0yhH92oJNqK0P-28" edge="1">
          <mxGeometry relative="1" as="geometry" />
        </mxCell>
        <mxCell id="iXRmQMQ0yhH92oJNqK0P-30" style="edgeStyle=orthogonalEdgeStyle;rounded=0;orthogonalLoop=1;jettySize=auto;html=1;exitX=0;exitY=0.5;exitDx=0;exitDy=0;" parent="1" source="iXRmQMQ0yhH92oJNqK0P-31" target="iXRmQMQ0yhH92oJNqK0P-18" edge="1">
          <mxGeometry relative="1" as="geometry" />
        </mxCell>
        <mxCell id="iXRmQMQ0yhH92oJNqK0P-31" value="Scaning" style="rounded=1;whiteSpace=wrap;html=1;arcSize=30;" parent="1" vertex="1">
          <mxGeometry x="520" y="535" width="120" height="60" as="geometry" />
        </mxCell>
        <mxCell id="iXRmQMQ0yhH92oJNqK0P-32" style="edgeStyle=orthogonalEdgeStyle;rounded=0;orthogonalLoop=1;jettySize=auto;html=1;exitX=0.5;exitY=1;exitDx=0;exitDy=0;entryX=0.5;entryY=0;entryDx=0;entryDy=0;" parent="1" source="iXRmQMQ0yhH92oJNqK0P-34" target="iXRmQMQ0yhH92oJNqK0P-37" edge="1">
          <mxGeometry relative="1" as="geometry" />
        </mxCell>
        <mxCell id="iXRmQMQ0yhH92oJNqK0P-33" value="Start" style="edgeLabel;html=1;align=center;verticalAlign=middle;resizable=0;points=[];" parent="iXRmQMQ0yhH92oJNqK0P-32" connectable="0" vertex="1">
          <mxGeometry x="-0.1467" y="3" relative="1" as="geometry">
            <mxPoint as="offset" />
          </mxGeometry>
        </mxCell>
        <mxCell id="iXRmQMQ0yhH92oJNqK0P-34" value="Start/stop" style="rhombus;whiteSpace=wrap;html=1;" parent="1" vertex="1">
          <mxGeometry x="670" y="250" width="80" height="80" as="geometry" />
        </mxCell>
        <mxCell id="iXRmQMQ0yhH92oJNqK0P-35" style="edgeStyle=orthogonalEdgeStyle;rounded=0;orthogonalLoop=1;jettySize=auto;html=1;exitX=0.5;exitY=1;exitDx=0;exitDy=0;entryX=0.5;entryY=0;entryDx=0;entryDy=0;" parent="1" source="iXRmQMQ0yhH92oJNqK0P-13" target="iXRmQMQ0yhH92oJNqK0P-34" edge="1">
          <mxGeometry relative="1" as="geometry" />
        </mxCell>
        <mxCell id="iXRmQMQ0yhH92oJNqK0P-36" style="edgeStyle=orthogonalEdgeStyle;rounded=0;orthogonalLoop=1;jettySize=auto;html=1;exitX=0.5;exitY=1;exitDx=0;exitDy=0;entryX=1;entryY=0.25;entryDx=0;entryDy=0;" parent="1" source="iXRmQMQ0yhH92oJNqK0P-37" target="iXRmQMQ0yhH92oJNqK0P-31" edge="1">
          <mxGeometry relative="1" as="geometry" />
        </mxCell>
        <mxCell id="iXRmQMQ0yhH92oJNqK0P-37" value="filter/all" style="rhombus;whiteSpace=wrap;html=1;" parent="1" vertex="1">
          <mxGeometry x="670" y="380" width="80" height="80" as="geometry" />
        </mxCell>
        <mxCell id="bmv8Gmg8gt9N2H3PY7fK-1" value="" style="rounded=0;whiteSpace=wrap;html=1;" parent="1" vertex="1">
          <mxGeometry x="30" y="660" width="750" height="170" as="geometry" />
        </mxCell>
        <mxCell id="bmv8Gmg8gt9N2H3PY7fK-2" value="&lt;b&gt;THREADS&lt;/b&gt;" style="rounded=0;whiteSpace=wrap;html=1;strokeColor=none;" parent="1" vertex="1">
          <mxGeometry x="70" y="670" width="120" height="60" as="geometry" />
        </mxCell>
        <mxCell id="bmv8Gmg8gt9N2H3PY7fK-3" value="Init" style="rounded=1;whiteSpace=wrap;html=1;" parent="1" vertex="1">
          <mxGeometry x="80" y="720" width="120" height="60" as="geometry" />
        </mxCell>
        <mxCell id="bmv8Gmg8gt9N2H3PY7fK-4" value="Stream msg" style="rounded=1;whiteSpace=wrap;html=1;" parent="1" vertex="1">
          <mxGeometry x="230" y="720" width="120" height="60" as="geometry" />
        </mxCell>
      </root>
    </mxGraphModel>
  </diagram>
</mxfile>
